<?xml version="1.0" standalone="no"?>
<!DOCTYPE svg PUBLIC "-//W3C//DTD SVG 20010904//EN"
 "http://www.w3.org/TR/2001/REC-SVG-20010904/DTD/svg10.dtd">
<svg version="1.0" xmlns="http://www.w3.org/2000/svg"
 width="16.000000pt" height="16.000000pt" viewBox="0 0 16.000000 16.000000"
 preserveAspectRatio="xMidYMid meet">

<g transform="translate(0.000000,16.000000) scale(0.100000,-0.100000)"
fill="#000000" stroke="none">
<path d="M4 147 c-3 -8 -4 -43 -2 -78 l3 -64 75 0 75 0 0 75 0 75 -73 3 c-55
2 -74 -1 -78 -11z m61 -57 c8 -38 20 -38 31 1 14 47 29 39 30 -16 1 -27 0 -38
-3 -22 -5 34 -21 35 -29 2 -8 -32 -20 -32 -28 1 -7 28 -21 23 -29 -11 -3 -11
-5 1 -6 26 -2 67 21 79 34 19z"/>
</g>
</svg>
